<svg width="78" height="78" viewBox="0 0 78 78" fill="none" xmlns="http://www.w3.org/2000/svg">
<path d="M30.4062 46.8125C32.5938 46.8125 34.3125 45.0938 34.3125 42.9062C34.3125 40.875 32.5938 39 30.4062 39C28.2188 39 26.5 40.875 26.5 42.9062C26.5 45.0938 28.2188 46.8125 30.4062 46.8125ZM77.75 39C77.75 17.5938 60.4062 0.25 39 0.25C17.5938 0.25 0.25 17.5938 0.25 39C0.25 60.4062 17.5938 77.75 39 77.75C60.4062 77.75 77.75 60.4062 77.75 39ZM56.9688 32.5938C62.4375 32.5938 64.1562 39.9375 59.3125 42.4375C59.4688 43.2188 59.625 44 59.625 44.9375C59.625 53.0625 50.4062 59.7812 39 59.7812C27.5938 59.7812 18.375 53.0625 18.375 44.9375C18.375 44 18.375 43.2188 18.5312 42.4375C13.6875 39.9375 15.4062 32.5938 20.875 32.5938C22.2812 32.5938 23.6875 33.2188 24.625 34.1562C28.0625 31.8125 32.75 30.25 37.9062 30.0938L41.0312 16.5C41.0312 16.0312 41.5 15.7188 41.9688 15.875L51.6562 17.9062C52.2812 16.6562 53.5312 15.875 55.0938 15.875C57.2812 15.875 59 17.5938 59 19.7812C59 21.8125 57.2812 23.5312 55.0938 23.5312C52.9062 23.5312 51.1875 21.8125 51.1875 19.7812L42.5938 17.75L39.7812 30.0938C45.0938 30.25 49.7812 31.8125 53.2188 34.1562C54.3125 33.2188 55.5625 32.5938 56.9688 32.5938ZM46.1875 50.7188C43.375 53.6875 34.3125 53.5312 31.6562 50.7188C31.3438 50.4062 30.7188 50.4062 30.25 50.7188C29.9375 51.1875 29.9375 51.8125 30.25 52.125C33.8438 55.7188 44 55.7188 47.5938 52.125C47.9062 51.8125 47.9062 51.1875 47.5938 50.7188C47.125 50.4062 46.6562 50.4062 46.1875 50.7188ZM47.4375 39C45.25 39 43.5312 40.875 43.5312 42.9062C43.5312 45.0938 45.4062 46.8125 47.4375 46.8125C49.625 46.8125 51.3438 45.0938 51.3438 42.9062C51.3438 40.875 49.625 39 47.4375 39Z" fill="#6324C6"/>
</svg>
