<svg width="69" height="29" viewBox="0 0 69 29" fill="none" xmlns="http://www.w3.org/2000/svg">
<path d="M9.81445 17.0664C10.498 17.0664 11.0352 16.5293 11.0352 15.8457C11.0352 15.2109 10.498 14.625 9.81445 14.625C9.13086 14.625 8.59375 15.2109 8.59375 15.8457C8.59375 16.5293 9.13086 17.0664 9.81445 17.0664ZM24.6094 14.625C24.6094 7.93555 19.1895 2.51562 12.5 2.51562C5.81055 2.51562 0.390625 7.93555 0.390625 14.625C0.390625 21.3145 5.81055 26.7344 12.5 26.7344C19.1895 26.7344 24.6094 21.3145 24.6094 14.625ZM18.1152 12.623C19.8242 12.623 20.3613 14.918 18.8477 15.6992C18.8965 15.9434 18.9453 16.1875 18.9453 16.4805C18.9453 19.0195 16.0645 21.1191 12.5 21.1191C8.93555 21.1191 6.05469 19.0195 6.05469 16.4805C6.05469 16.1875 6.05469 15.9434 6.10352 15.6992C4.58984 14.918 5.12695 12.623 6.83594 12.623C7.27539 12.623 7.71484 12.8184 8.00781 13.1113C9.08203 12.3789 10.5469 11.8906 12.1582 11.8418L13.1348 7.59375C13.1348 7.44727 13.2812 7.34961 13.4277 7.39844L16.4551 8.0332C16.6504 7.64258 17.041 7.39844 17.5293 7.39844C18.2129 7.39844 18.75 7.93555 18.75 8.61914C18.75 9.25391 18.2129 9.79102 17.5293 9.79102C16.8457 9.79102 16.3086 9.25391 16.3086 8.61914L13.623 7.98438L12.7441 11.8418C14.4043 11.8906 15.8691 12.3789 16.9434 13.1113C17.2852 12.8184 17.6758 12.623 18.1152 12.623ZM14.7461 18.2871C13.8672 19.2148 11.0352 19.166 10.2051 18.2871C10.1074 18.1895 9.91211 18.1895 9.76562 18.2871C9.66797 18.4336 9.66797 18.6289 9.76562 18.7266C10.8887 19.8496 14.0625 19.8496 15.1855 18.7266C15.2832 18.6289 15.2832 18.4336 15.1855 18.2871C15.0391 18.1895 14.8926 18.1895 14.7461 18.2871ZM15.1367 14.625C14.4531 14.625 13.916 15.2109 13.916 15.8457C13.916 16.5293 14.502 17.0664 15.1367 17.0664C15.8203 17.0664 16.3574 16.5293 16.3574 15.8457C16.3574 15.2109 15.8203 14.625 15.1367 14.625Z" fill="#6324C6"/>
<path d="M34.741 12.852H38.92V14.343H34.741V18.669H33.229V14.343H29.05V12.852H33.229V8.505H34.741V12.852Z" fill="#6324C6"/>
<path d="M64.4102 10.8164C64.1172 10.7188 63.873 10.6211 63.6289 10.5723C63.6289 10.377 63.6777 10.1816 63.7266 9.98633C64.3125 7.10547 63.9219 4.76172 62.6035 3.98047C61.334 3.24805 59.2344 4.0293 57.0859 5.88477C56.8906 6.03125 56.6953 6.22656 56.5 6.42188C56.3535 6.27539 56.207 6.17773 56.1094 6.03125C53.8633 4.07812 51.6172 3.24805 50.2988 4.0293C49.0293 4.76172 48.6387 6.95898 49.1758 9.74219C49.2246 9.98633 49.2734 10.2793 49.3711 10.5234C49.0293 10.6211 48.7363 10.7188 48.4434 10.8164C45.8555 11.7441 44 13.1602 44 14.625C44 16.1387 45.9531 17.7012 48.6875 18.6289C48.8828 18.6777 49.127 18.7754 49.3223 18.8242C49.2734 19.1172 49.2246 19.4102 49.127 19.7031C48.6387 22.3887 49.0293 24.5371 50.2988 25.2695C51.6172 26.0508 53.8633 25.2695 56.0117 23.3652C56.1582 23.2188 56.3535 23.0723 56.5 22.9258C56.7441 23.1211 56.9395 23.3164 57.1836 23.5117C59.2832 25.3184 61.334 26.0508 62.6035 25.3184C63.9219 24.5371 64.3613 22.2422 63.8242 19.4102C63.7754 19.2148 63.7266 18.9707 63.6777 18.7754C63.8242 18.7266 63.9707 18.6777 64.1172 18.6289C66.9492 17.7012 69 16.1875 69 14.625C69 13.1602 67.0469 11.6953 64.4102 10.8164ZM57.7695 6.66602C59.625 5.05469 61.2852 4.46875 62.0664 4.9082C62.8965 5.34766 63.2383 7.30078 62.7012 9.79102C62.6523 9.98633 62.6523 10.1328 62.6035 10.2793C61.4805 10.0352 60.4062 9.88867 59.2832 9.79102C58.6484 8.86328 57.9648 7.98438 57.2324 7.1543C57.4277 7.00781 57.5742 6.8125 57.7695 6.66602ZM52.1543 17.1641C52.3984 17.6035 52.6426 17.9941 52.9355 18.4336C52.1543 18.3359 51.373 18.2383 50.6406 18.043C50.8848 17.3594 51.1289 16.627 51.4219 15.8945C51.666 16.334 51.9102 16.7246 52.1543 17.1641ZM50.6406 11.3047C51.373 11.1094 52.1055 11.0117 52.8867 10.9141C52.6426 11.3047 52.3984 11.7441 52.1543 12.1348C51.9102 12.5742 51.666 12.9648 51.4219 13.4043C51.1289 12.6719 50.8848 11.9883 50.6406 11.3047ZM52.0078 14.6738C52.3008 13.9902 52.6914 13.3066 53.0332 12.6719C53.4238 12.0371 53.8145 11.4023 54.2539 10.7676C54.9863 10.7188 55.7188 10.6699 56.5 10.6699C57.2324 10.6699 58.0137 10.7188 58.6973 10.7676C59.1367 11.4023 59.5273 12.0371 59.918 12.6719C60.2598 13.3066 60.6504 13.9414 60.9434 14.625C60.6504 15.3086 60.3086 15.9922 59.918 16.627C59.5273 17.2617 59.1367 17.8965 58.7461 18.5312C58.0137 18.5801 57.2324 18.6289 56.5 18.6289C55.7188 18.6289 54.9863 18.5801 54.2539 18.5312C53.8145 17.8965 53.4238 17.2617 53.0332 16.627C52.6914 15.9922 52.3496 15.3086 52.0078 14.6738ZM60.7969 17.1641C61.0898 16.7246 61.2852 16.2852 61.5293 15.8457C61.8223 16.5781 62.1152 17.2617 62.3594 17.9941C61.5781 18.1895 60.8457 18.3359 60.0645 18.3848C60.3086 17.9941 60.5527 17.5547 60.7969 17.1641ZM61.5293 13.4043C61.2852 12.9648 61.041 12.5742 60.7969 12.1348C60.5527 11.7441 60.3086 11.3047 60.0645 10.9141C60.8457 11.0117 61.627 11.1582 62.3105 11.3047C62.0664 12.0371 61.8223 12.7207 61.5293 13.4043ZM56.5 7.93555C56.9883 8.47266 57.4766 9.05859 57.916 9.69336C56.9883 9.64453 56.0117 9.64453 55.0352 9.69336C55.5234 9.05859 56.0117 8.47266 56.5 7.93555ZM50.8359 4.9082C51.666 4.46875 53.4727 5.15234 55.377 6.8125C55.5234 6.95898 55.6211 7.05664 55.7676 7.1543C54.9863 7.98438 54.3027 8.86328 53.668 9.79102C52.5449 9.88867 51.4707 10.0352 50.3965 10.2793C50.2988 10.0352 50.25 9.79102 50.2012 9.49805C49.7617 7.1543 50.0547 5.39648 50.8359 4.9082ZM49.6152 17.7988C49.4199 17.75 49.2246 17.7012 49.0293 17.6035C48.0039 17.2617 46.7832 16.7734 45.9531 16.0898C45.4648 15.748 45.123 15.2109 45.0254 14.625C45.0254 13.7461 46.5879 12.5742 48.7852 11.793C49.0781 11.6953 49.3711 11.6465 49.6641 11.5488C49.957 12.623 50.3965 13.6484 50.8359 14.6738C50.3477 15.6504 49.957 16.7246 49.6152 17.7988ZM55.3281 22.584C54.498 23.3164 53.5703 23.9023 52.5449 24.293C52.0078 24.5859 51.4219 24.5859 50.8359 24.3906C50.0547 23.9023 49.7617 22.1934 50.2012 19.8984C50.25 19.6055 50.2988 19.3125 50.3477 19.0684C51.4707 19.3125 52.5449 19.459 53.668 19.5566C54.3027 20.4355 55.0352 21.3145 55.7676 22.1445C55.6211 22.291 55.4746 22.4375 55.3281 22.584ZM56.5 21.4121C56.0117 20.875 55.5234 20.2891 55.0352 19.6055C55.5234 19.6543 56.0117 19.6543 56.5 19.6543C56.9883 19.6543 57.4766 19.6543 57.9648 19.6055C57.5254 20.2402 57.0371 20.8262 56.5 21.4121ZM62.8965 22.877C62.8477 23.4629 62.5547 24 62.1152 24.3906C61.334 24.8301 59.6738 24.2441 57.8672 22.7305C57.6719 22.5352 57.4766 22.3398 57.2324 22.1445C58.0137 21.3145 58.6973 20.4844 59.332 19.5566C60.4551 19.459 61.5293 19.2637 62.6523 19.0195C62.7012 19.2148 62.75 19.4102 62.7988 19.6055C62.9941 20.6797 63.043 21.8027 62.8965 22.877ZM63.7754 17.6035C63.6289 17.6523 63.5312 17.7012 63.3848 17.75C63.043 16.6758 62.6035 15.6504 62.1152 14.625C62.6035 13.6484 62.9941 12.623 63.3359 11.5488C63.5801 11.6465 63.8242 11.6953 64.0684 11.793C66.3145 12.5742 67.9258 13.7461 67.9258 14.625C67.9258 15.5527 66.2168 16.8223 63.7754 17.6035ZM56.5 16.8711C57.7207 16.8711 58.6973 15.8945 58.6973 14.625C58.6973 13.4043 57.7207 12.4277 56.5 12.4277C55.2305 12.4277 54.2539 13.4043 54.2539 14.625C54.2539 15.8945 55.2305 16.8711 56.5 16.8711Z" fill="#6324C6"/>
</svg>
